<!DOCTYPE svg PUBLIC "-//W3C//DTD SVG 1.1//EN" "http://www.w3.org/Graphics/SVG/1.1/DTD/svg11.dtd">
<!-- Uploaded to: SVG Repo, www.svgrepo.com, Transformed by: SVG Repo Mixer Tools -->
<svg width="800px" height="800px" viewBox="0 0 24 24" fill="none" xmlns="http://www.w3.org/2000/svg">
<g id="SVGRepo_bgCarrier" stroke-width="0"/>
<g id="SVGRepo_tracerCarrier" stroke-linecap="round" stroke-linejoin="round"/>
<g id="SVGRepo_iconCarrier"> <path d="M22 12C22 12 21.171 13.5958 19.612 15.2635M9.76406 5.29519C10.4664 5.10724 11.2123 5 12 5C14.8779 5 17.198 6.43162 18.8762 8M4.34912 8.77822C2.8152 10.4307 2 12 2 12C2 12 5.63636 19 12 19C12.8021 19 13.5608 18.8888 14.2744 18.6944M11.5 14.9585C10.4158 14.7766 9.52883 14.0132 9.17071 13M12.5 9.04148C13.7563 9.25224 14.7478 10.2437 14.9585 11.5M3 3L21 21" stroke="#000000" stroke-width="1.5" stroke-linecap="round" stroke-linejoin="round"/> </g>
</svg>