<!DOCTYPE svg PUBLIC "-//W3C//DTD SVG 1.1//EN" "http://www.w3.org/Graphics/SVG/1.1/DTD/svg11.dtd">
<!-- Uploaded to: SVG Repo, www.svgrepo.com, Transformed by: SVG Repo Mixer Tools -->
<svg width="800px" height="800px" viewBox="0 -6 64 64" version="1.1" xmlns="http://www.w3.org/2000/svg" xmlns:xlink="http://www.w3.org/1999/xlink" xmlns:sketch="http://www.bohemiancoding.com/sketch/ns" fill="#090707" stroke="#090707">
<g id="SVGRepo_bgCarrier" stroke-width="0"/>
<g id="SVGRepo_tracerCarrier" stroke-linecap="round" stroke-linejoin="round"/>
<g id="SVGRepo_iconCarrier"> <title>Vinyl-player</title> <desc>Created with Sketch.</desc> <defs> </defs> <g id="Page-1" stroke="none" stroke-width="1" fill="none" fill-rule="evenodd" sketch:type="MSPage"> <g id="Vinyl-player" sketch:type="MSLayerGroup" transform="translate(1.000000, 1.000000)" stroke="#7f5761" stroke-width="2"> <path d="M62,48 C62,49.1 61.1,50 60,50 L2,50 C0.9,50 0,49.1 0,48 L0,2 C0,0.9 0.9,0 2,0 L60,0 C61.1,0 62,0.9 62,2 L62,48 L62,48 Z" id="Shape" sketch:type="MSShapeGroup"> </path> <circle id="Oval" sketch:type="MSShapeGroup" cx="38" cy="25" r="21"> </circle> <circle id="Oval" sketch:type="MSShapeGroup" cx="38" cy="25" r="7"> </circle> <circle id="Oval" sketch:type="MSShapeGroup" cx="38" cy="25" r="2"> </circle> <circle id="Oval" sketch:type="MSShapeGroup" cx="9" cy="8" r="5"> </circle> <path d="M9.7,13 L13,35 L35,41" id="Shape" sketch:type="MSShapeGroup"> </path> <path d="M5,38 L12,38" id="Shape" sketch:type="MSShapeGroup"> </path> <path d="M5,41 L12,41" id="Shape" sketch:type="MSShapeGroup"> </path> <path d="M5,45 L12,45" id="Shape" sketch:type="MSShapeGroup"> </path> </g> </g> </g>
</svg>