<!DOCTYPE svg PUBLIC "-//W3C//DTD SVG 1.1//EN" "http://www.w3.org/Graphics/SVG/1.1/DTD/svg11.dtd">
<!-- Uploaded to: SVG Repo, www.svgrepo.com, Transformed by: SVG Repo Mixer Tools -->
<svg width="800px" height="800px" viewBox="0 0 24 24" fill="none" xmlns="http://www.w3.org/2000/svg">
<g id="SVGRepo_bgCarrier" stroke-width="0"/>
<g id="SVGRepo_tracerCarrier" stroke-linecap="round" stroke-linejoin="round"/>
<g id="SVGRepo_iconCarrier"> <path d="M19.4697 20.5303C19.7626 20.8232 20.2374 20.8232 20.5303 20.5303C20.8232 20.2374 20.8232 19.7626 20.5303 19.4697L19.4697 20.5303ZM16.3236 16.3437C16.617 16.0513 16.6178 15.5764 16.3254 15.283C16.033 14.9896 15.5581 14.9888 15.2647 15.2812L16.3236 16.3437ZM17.115 11.8508C17.0326 12.2567 17.2948 12.6526 17.7008 12.735C18.1067 12.8174 18.5026 12.5551 18.585 12.1492L17.115 11.8508ZM10.5 17.25C6.77208 17.25 3.75 14.2279 3.75 10.5H2.25C2.25 15.0563 5.94365 18.75 10.5 18.75V17.25ZM3.75 10.5C3.75 6.77208 6.77208 3.75 10.5 3.75V2.25C5.94365 2.25 2.25 5.94365 2.25 10.5H3.75ZM10.5 3.75C14.2279 3.75 17.25 6.77208 17.25 10.5H18.75C18.75 5.94365 15.0563 2.25 10.5 2.25V3.75ZM20.5303 19.4697L16.3428 15.2821L15.2821 16.3428L19.4697 20.5303L20.5303 19.4697ZM15.2647 15.2812C14.0431 16.4987 12.36 17.25 10.5 17.25V18.75C12.7729 18.75 14.8322 17.8299 16.3236 16.3437L15.2647 15.2812ZM17.25 10.5C17.25 10.9633 17.2034 11.415 17.115 11.8508L18.585 12.1492C18.6933 11.6157 18.75 11.0641 18.75 10.5H17.25Z" fill="#000000"/> </g>
</svg>