<!DOCTYPE svg PUBLIC "-//W3C//DTD SVG 1.1//EN" "http://www.w3.org/Graphics/SVG/1.1/DTD/svg11.dtd">
<!-- Uploaded to: SVG Repo, www.svgrepo.com, Transformed by: SVG Repo Mixer Tools -->
<svg version="1.1" id="Layer_1" xmlns="http://www.w3.org/2000/svg" xmlns:xlink="http://www.w3.org/1999/xlink" viewBox="0 0 512 512" xml:space="preserve" width="800px" height="800px" fill="#000000">
<g id="SVGRepo_bgCarrier" stroke-width="0"/>
<g id="SVGRepo_tracerCarrier" stroke-linecap="round" stroke-linejoin="round"/>
<g id="SVGRepo_iconCarrier"> <circle style="fill:#E6F3FF;" cx="256" cy="256" r="256"/> <path style="fill:#CFDBE6;" d="M289.387,509.833c111.952-14.583,201.163-101.49,219.243-212.304l-87.135-87.135l-13.183,16.044 L276.687,94.815L263.692,228.14L90.505,245.886l104.522,104.522l-41.706,23.361L289.387,509.833z"/> <path style="fill:#fcef5f;" d="M168.726,380.906h174.547c8.701,0,16.425-5.568,19.177-13.822l46.314-138.943H103.236l46.314,138.943 C152.302,375.337,160.025,380.906,168.726,380.906z"/> <g> <path style="fill:#f1cb41;" d="M255.426,228.14v152.764h87.848c8.701,0,16.425-5.568,19.177-13.822l46.314-138.943h-153.34V228.14z "/> <rect x="90.505" y="210.403" style="fill:#f1cb41;" width="330.99" height="35.49"/> </g> <rect x="255.431" y="210.403" style="fill:#d99620;" width="166.064" height="35.49"/> <rect x="235.313" y="94.815" style="fill:#ecda65;" width="41.374" height="170.667"/> <rect x="255.431" y="94.815" style="fill:#cca724;" width="21.261" height="170.667"/> <circle style="fill:#F9B54C;" cx="369.778" cy="312.889" r="46.545"/> <path style="fill:#F4A200;" d="M369.778,266.343c-0.193,0-0.383,0.012-0.574,0.014v93.062c0.191,0.002,0.381,0.014,0.574,0.014 c25.707,0,46.545-20.839,46.545-46.545S395.485,266.343,369.778,266.343z"/> <rect x="344.695" y="306.803" style="fill:#324A5E;" width="50.183" height="12.171"/> <rect x="369.209" y="306.803" style="fill:#2B3B4E;" width="25.664" height="12.171"/> </g>
</svg>